<svg width="115" height="119" viewBox="0 0 115 119" fill="none" xmlns="http://www.w3.org/2000/svg">
<g filter="url(#filter0_d_17_106)">
<path d="M56.8509 14.8984L53.541 11.2006C55.8079 9.17148 59.1921 9.17151 61.459 11.2006M56.8509 14.8984L61.459 11.2006M56.8509 14.8984L53.541 11.2006C51.133 13.3559 42.6369 21.2153 34.7038 31.7383C26.9101 42.0765 18.9583 55.891 18.9583 69.8214C18.9583 89.9875 36.6234 105.625 57.5 105.625C78.3766 105.625 96.0417 89.9875 96.0417 69.8214M56.8509 14.8984L96.0417 69.8214M61.459 11.2006C63.867 13.3559 72.3631 21.2153 80.2962 31.7383M61.459 11.2006L80.2962 31.7383M96.0417 69.8214C96.0417 55.891 88.0899 42.0765 80.2962 31.7383M96.0417 69.8214L80.2962 31.7383" stroke="white" stroke-width="10"/>
<path d="M57.5 86.25C54.983 86.25 52.4906 85.7542 50.1652 84.791C47.8398 83.8278 45.7269 82.416 43.9471 80.6362C42.1673 78.8564 40.7555 76.7435 39.7923 74.4181C38.8291 72.0927 38.3333 69.6003 38.3333 67.0833" stroke="white" stroke-width="10" stroke-linecap="round"/>
</g>
<defs>
<filter id="filter0_d_17_106" x="-4" y="0" width="123" height="123" filterUnits="userSpaceOnUse" color-interpolation-filters="sRGB">
<feFlood flood-opacity="0" result="BackgroundImageFix"/>
<feColorMatrix in="SourceAlpha" type="matrix" values="0 0 0 0 0 0 0 0 0 0 0 0 0 0 0 0 0 0 127 0" result="hardAlpha"/>
<feOffset dy="4"/>
<feGaussianBlur stdDeviation="2"/>
<feComposite in2="hardAlpha" operator="out"/>
<feColorMatrix type="matrix" values="0 0 0 0 0 0 0 0 0 0 0 0 0 0 0 0 0 0 0.25 0"/>
<feBlend mode="normal" in2="BackgroundImageFix" result="effect1_dropShadow_17_106"/>
<feBlend mode="normal" in="SourceGraphic" in2="effect1_dropShadow_17_106" result="shape"/>
</filter>
</defs>
</svg>
