<svg width="141" height="141" viewBox="0 0 141 141" fill="none" xmlns="http://www.w3.org/2000/svg">
<g filter="url(#filter0_d_17_75)">
<path fill-rule="evenodd" clip-rule="evenodd" d="M101.081 21.7153C103.023 22.271 103.993 22.5488 104.065 23.2192C104.136 23.8895 103.183 24.3983 101.276 25.4159C86.4587 33.3244 76.375 48.9381 76.375 66.907C76.375 84.8759 86.4587 100.49 101.276 108.398C103.183 109.416 104.136 109.924 104.065 110.595C103.994 111.265 103.023 111.543 101.081 112.099C96.9651 113.276 92.6187 113.907 88.125 113.907C62.1676 113.907 41.125 92.8644 41.125 66.907C41.125 40.9496 62.1676 19.907 88.125 19.907C92.6187 19.907 96.9651 20.5376 101.081 21.7153Z" fill="#F3F3F3"/>
</g>
<defs>
<filter id="filter0_d_17_75" x="-4.00002" y="0" width="149" height="149" filterUnits="userSpaceOnUse" color-interpolation-filters="sRGB">
<feFlood flood-opacity="0" result="BackgroundImageFix"/>
<feColorMatrix in="SourceAlpha" type="matrix" values="0 0 0 0 0 0 0 0 0 0 0 0 0 0 0 0 0 0 127 0" result="hardAlpha"/>
<feOffset dy="4"/>
<feGaussianBlur stdDeviation="2"/>
<feComposite in2="hardAlpha" operator="out"/>
<feColorMatrix type="matrix" values="0 0 0 0 0 0 0 0 0 0 0 0 0 0 0 0 0 0 0.25 0"/>
<feBlend mode="normal" in2="BackgroundImageFix" result="effect1_dropShadow_17_75"/>
<feBlend mode="normal" in="SourceGraphic" in2="effect1_dropShadow_17_75" result="shape"/>
</filter>
</defs>
</svg>
