<svg width="140" height="140" viewBox="0 0 140 140" fill="none" xmlns="http://www.w3.org/2000/svg">
<g filter="url(#filter0_d_17_67)">
<path d="M99.1666 105C99.1666 97.2646 96.0937 89.8459 90.6239 84.3761C85.1541 78.9063 77.7355 75.8334 70 75.8334C62.2645 75.8334 54.8458 78.9063 49.376 84.3761C43.9062 89.8459 40.8333 97.2646 40.8333 105L70 105H99.1666Z" fill="#F3F3F3"/>
<path d="M102.083 72.9167L113.75 61.25" stroke="#F3F3F3" stroke-width="12" stroke-linecap="round"/>
<path d="M29.1666 105H110.833" stroke="#F3F3F3" stroke-width="12" stroke-linecap="square"/>
<path d="M26.25 61.2499L37.9167 72.9166" stroke="#F3F3F3" stroke-width="12" stroke-linecap="round"/>
<path d="M70 20.1923L74.1965 15.904L70 11.7972L65.8035 15.904L70 20.1923ZM64 61.25C64 64.5637 66.6863 67.25 70 67.25C73.3137 67.25 76 64.5637 76 61.25L64 61.25ZM89.0042 30.395L74.1965 15.904L65.8035 24.4805L80.6111 38.9715L89.0042 30.395ZM65.8035 15.904L50.9958 30.395L59.3888 38.9715L74.1965 24.4805L65.8035 15.904ZM64 20.1923L64 61.25L76 61.25L76 20.1923L64 20.1923Z" fill="#F3F3F3"/>
<rect x="22.2115" y="100.962" width="96.25" height="8.75" rx="4.375" fill="#F3F3F3"/>
</g>
<defs>
<filter id="filter0_d_17_67" x="-4.00002" y="0" width="148" height="148" filterUnits="userSpaceOnUse" color-interpolation-filters="sRGB">
<feFlood flood-opacity="0" result="BackgroundImageFix"/>
<feColorMatrix in="SourceAlpha" type="matrix" values="0 0 0 0 0 0 0 0 0 0 0 0 0 0 0 0 0 0 127 0" result="hardAlpha"/>
<feOffset dy="4"/>
<feGaussianBlur stdDeviation="2"/>
<feComposite in2="hardAlpha" operator="out"/>
<feColorMatrix type="matrix" values="0 0 0 0 0 0 0 0 0 0 0 0 0 0 0 0 0 0 0.25 0"/>
<feBlend mode="normal" in2="BackgroundImageFix" result="effect1_dropShadow_17_67"/>
<feBlend mode="normal" in="SourceGraphic" in2="effect1_dropShadow_17_67" result="shape"/>
</filter>
</defs>
</svg>
