<svg width="128" height="132" viewBox="0 0 128 132" fill="none" xmlns="http://www.w3.org/2000/svg">
<g filter="url(#filter0_d_17_163)">
<path fill-rule="evenodd" clip-rule="evenodd" d="M56.0005 45.0448L56.0005 45.0207L33.3576 45.0204L55.0774 36.9816L55.075 36.975C55.491 36.8676 55.9214 36.8293 56.3498 36.8621C56.4063 36.8664 56.4628 36.872 56.5192 36.8787L56.5201 36.8788C57.1083 36.9498 57.6738 37.1538 58.1757 37.476L58.1757 37.476C58.6776 37.7982 59.1034 38.2306 59.4223 38.742L59.4228 38.7428C59.7415 39.2542 59.9454 39.8318 60.0198 40.4338L60.0199 40.4349C60.0941 41.0372 60.0367 41.6487 59.852 42.2255L59.8519 42.2259C59.667 42.8028 59.3594 43.3304 58.9511 43.7705L58.9507 43.7709C58.5426 44.2108 58.0441 44.5523 57.4914 44.7707L57.4903 44.7712C57.4383 44.7917 57.386 44.8111 57.3333 44.8293C56.904 44.978 56.4533 45.0509 56.0005 45.0448ZM16 42.7309V53.2151L55.9183 53.2156C57.4343 53.233 58.9422 52.9552 60.361 52.3946L60.3621 52.3942C61.4422 51.9673 62.453 51.3834 63.3646 50.6632C63.8501 50.2796 64.3074 49.8574 64.732 49.3996L64.7324 49.3992C65.9545 48.0815 66.8756 46.5021 67.429 44.7751L67.4292 44.7747C67.9825 43.0477 68.1544 41.2163 67.9324 39.4129L67.9323 39.4118C67.7102 37.6084 67.0997 35.8781 66.145 34.346L66.1444 34.3451C65.1895 32.8129 63.914 31.5172 62.4104 30.5519L62.4103 30.5519C61.8878 30.2164 61.3423 29.9237 60.7788 29.6757C59.7209 29.2101 58.6 28.9019 57.4501 28.7634L57.4493 28.7633C55.7361 28.5572 54.0003 28.7327 52.3605 29.2773L52.3592 29.2738L52.2365 29.3192L52.222 29.3242L52.2204 29.3248L52.2205 29.3251L16 42.7309ZM16 77.8366V86.254L68.8233 105.503L68.8226 105.504C70.7343 106.285 72.7906 106.625 74.8451 106.499C75.635 106.45 76.4172 106.333 77.1836 106.15C78.4103 105.858 79.5963 105.395 80.7084 104.774C82.5153 103.764 84.0825 102.359 85.2984 100.657C86.5143 98.9559 87.349 97.0006 87.7429 94.9309C88.1368 92.8612 88.0803 90.7279 87.5774 88.6831C87.0744 86.6383 86.1375 84.7323 84.8333 83.101C84.0305 82.0969 83.1007 81.212 82.0712 80.4684C81.4282 80.0039 80.7463 79.5944 80.0321 79.2454C78.1773 78.339 76.1504 77.8623 74.0955 77.849V77.8368L16 77.8366ZM74.0413 86.0317L39.2604 86.0315L71.9368 97.9387L71.9338 97.9471C72.7105 98.2407 73.5387 98.3663 74.3662 98.3155C75.246 98.2614 76.1033 98.0092 76.877 97.5769C77.6507 97.1445 78.3219 96.5425 78.8425 95.814C79.3632 95.0854 79.7207 94.2481 79.8893 93.3618C80.058 92.4755 80.0338 91.562 79.8185 90.6864C79.6031 89.8107 79.2019 88.9945 78.6434 88.296C78.0849 87.5974 77.3829 87.0337 76.5874 86.6449C75.793 86.2567 74.9249 86.0526 74.0449 86.047L74.0412 86.0469L74.0412 86.0454L74.0413 86.0317ZM92.0722 46.0845L92.0686 46.0865L88.1345 38.9516L88.13 38.9434L88.1378 38.9388C90.2679 37.7075 92.6452 36.9929 95.0871 36.8499C95.4412 36.8291 95.7954 36.8205 96.149 36.8239C98.2361 36.8438 100.303 37.282 102.232 38.1176C104.487 39.0948 106.494 40.5894 108.096 42.4863C109.699 44.3832 110.856 46.6317 111.477 49.0587C112.098 51.4856 112.167 54.0263 111.679 56.4849C111.19 58.9436 110.158 61.2545 108.661 63.2399C107.38 64.9374 105.789 66.3582 103.981 67.4247C103.674 67.6055 103.361 67.7762 103.042 67.9363C100.843 69.0406 98.4265 69.613 95.9776 69.6095V69.6083H16V61.4142H95.9888L95.9888 61.4053C97.2121 61.4071 98.4194 61.1211 99.5179 60.5695C100.616 60.0178 101.576 59.2152 102.324 58.2235C103.072 57.2317 103.588 56.0773 103.832 54.8491C104.076 53.6209 104.041 52.3518 103.731 51.1394C103.421 49.9271 102.843 48.8039 102.043 47.8563C101.242 46.9088 100.24 46.1622 99.1129 45.674C97.9862 45.1859 96.7652 44.9692 95.544 45.0407C94.324 45.1122 93.1363 45.4692 92.0722 46.0845Z" fill="white"/>
</g>
<defs>
<filter id="filter0_d_17_163" x="-4" y="0" width="136" height="139.107" filterUnits="userSpaceOnUse" color-interpolation-filters="sRGB">
<feFlood flood-opacity="0" result="BackgroundImageFix"/>
<feColorMatrix in="SourceAlpha" type="matrix" values="0 0 0 0 0 0 0 0 0 0 0 0 0 0 0 0 0 0 127 0" result="hardAlpha"/>
<feOffset dy="4"/>
<feGaussianBlur stdDeviation="2"/>
<feComposite in2="hardAlpha" operator="out"/>
<feColorMatrix type="matrix" values="0 0 0 0 0 0 0 0 0 0 0 0 0 0 0 0 0 0 0.44 0"/>
<feBlend mode="normal" in2="BackgroundImageFix" result="effect1_dropShadow_17_163"/>
<feBlend mode="normal" in="SourceGraphic" in2="effect1_dropShadow_17_163" result="shape"/>
</filter>
</defs>
</svg>
